<svg width="75" height="24" viewBox="0 0 75 24" fill="none" xmlns="http://www.w3.org/2000/svg">
<g id="2GIS_logo 1">
<path id="path30" d="M70.7281 8.82751H74.1293C73.6991 5.51713 71.2814 3.7771 67.9211 3.7771C64.52 3.7771 62.2457 5.58083 62.2457 8.67897C62.2457 12.2015 65.1756 12.9866 66.7328 13.305C68.7407 13.7082 70.7076 13.7506 70.7076 15.533C70.7076 16.7426 69.7242 17.3368 68.3309 17.3368C66.6098 17.3368 65.4626 16.4455 65.1756 14.8329H61.8154C62.0203 18.3129 64.4586 20.1803 68.0442 20.1803C71.3633 20.1803 74.0883 18.61 74.0883 15.2148C74.0883 11.5649 70.9536 10.9071 68.7612 10.5675C67.2654 10.3342 65.6264 10.1219 65.6264 8.48796C65.6264 7.34209 66.4664 6.64186 67.8801 6.64186C69.5193 6.64186 70.5027 7.59681 70.7281 8.82751Z" fill="#25343F"/>
<path id="path32" d="M59.9508 4.30786H56.734V19.6924H59.9508V4.30786Z" fill="#25343F"/>
<path id="path26" d="M47.0223 14.3236H51.2226C50.5669 15.9789 49.0916 16.7639 47.3911 16.7639C44.3998 16.7639 43.0065 14.3661 43.0065 11.9894C43.0065 9.59151 44.3177 7.15125 47.3706 7.15125C49.2351 7.15125 50.6283 8.04249 51.1611 9.63398L54.6237 9.634C54.0296 6.04786 50.9972 3.9895 47.4116 3.9895C42.986 3.9895 39.6667 7.10878 39.6667 12.0319C39.6667 17.0186 43.2728 19.9682 47.3911 19.9682C51.4479 19.9682 54.6237 17.2308 54.6237 12.9444V11.6923H47.0223V14.3236Z" fill="#25343F"/>
<path id="path36" d="M32.3112 3.9895C28.6231 3.9895 25.8981 6.38732 25.9186 10.3767H29.2378C29.1968 8.63667 30.2622 7.04517 32.1472 7.04517C33.7864 7.04517 34.7493 8.23351 34.7493 9.59153C34.7493 10.9496 33.7864 11.7136 32.0038 12.5412C29.5656 13.6658 27.8241 14.3873 26.0415 15.024V19.6923H38.4579V16.5517H29.9339C29.9339 16.5517 29.9623 16.5426 29.9762 16.5382C31.4261 16.0832 32.5153 15.5889 33.8069 15.0027C36.5729 13.7295 38.1505 12.138 38.1505 9.42184C38.1505 6.09022 35.7738 3.9895 32.3112 3.9895Z" fill="#25343F"/>
<path id="path22" d="M17.1903 14.2812C13.0105 14.3025 12.3344 16.9125 12.109 19.1194L12.0066 20.0955H11.1665L11.0641 19.1194C10.8387 16.9125 10.1421 14.3025 6.10571 14.2812C5.42959 12.8382 5.14274 11.6711 5.14274 10.3554C5.14274 7.06639 7.74487 3.98938 11.5967 3.98938C15.4487 3.98938 18.0098 7.04506 18.0098 10.3768C18.0098 11.6711 17.8869 12.8382 17.1903 14.2812ZM11.5558 0C5.20427 0 0 5.38996 0 11.9893C0 18.6101 5.20427 24 11.5558 24C17.9688 24 23.1526 18.6101 23.1526 11.9893C23.1526 5.38998 17.9688 0 11.5558 0Z" fill="#29B24A"/>
</g>
</svg>
