<svg width="125" height="24" viewBox="0 0 125 24" fill="none" xmlns="http://www.w3.org/2000/svg">
<g id="Google_Maps_Logo 1">
<path id="Vector" d="M4.64575 17.7759C5.33994 18.6605 5.97175 19.5924 6.53659 20.5647C7.01885 21.4792 7.21988 22.0993 7.57237 23.2011C7.7885 23.8099 7.98386 23.9915 8.40383 23.9915C8.86156 23.9915 9.06919 23.6824 9.22963 23.2044C9.56278 22.1639 9.8242 21.3697 10.2366 20.6194C11.0459 19.1708 12.0515 17.8835 13.0396 16.6462C13.3072 16.2961 15.0366 14.2561 15.8152 12.6465C15.8152 12.6465 16.7722 10.8784 16.7722 8.40899C16.7722 6.09912 15.8285 4.49707 15.8285 4.49707L13.1113 5.22471L11.4612 9.57076L11.053 10.1701L10.9714 10.2786L10.8628 10.4145L10.6722 10.6316L10.3999 10.9038L8.93046 12.101L5.25684 14.2221L4.64575 17.7759Z" fill="#34A853"/>
<path id="Vector_2" d="M0.854126 12.3492C1.7507 14.3972 3.47969 16.1974 4.64949 17.7773L10.8628 10.4173C10.8628 10.4173 9.98743 11.5621 8.39955 11.5621C6.63093 11.5621 5.20206 10.1497 5.20206 8.36884C5.20206 7.1476 5.93678 6.30859 5.93678 6.30859L1.71909 7.43875L0.854126 12.3492Z" fill="#FBBC04"/>
<path id="Vector_3" d="M10.9322 0.373779C12.9958 1.03914 14.762 2.43591 15.8304 4.49568L10.8647 10.4131C10.8647 10.4131 11.5995 9.55899 11.5995 8.34531C11.5995 6.52289 10.0649 5.16151 8.40716 5.16151C6.83956 5.16151 5.93921 6.30441 5.93921 6.30441V2.57653L10.9322 0.373779Z" fill="#4285F4"/>
<path id="Vector_4" d="M1.99231 2.98852C3.22487 1.51388 5.39365 -0.00463867 8.3835 -0.00463867C9.83407 -0.00463867 10.927 0.376171 10.927 0.376171L5.93443 6.30775H2.39719L1.99231 2.98852Z" fill="#1A73E8"/>
<path id="Vector_5" d="M0.854149 12.3493C0.854149 12.3493 0.0292969 10.734 0.0292969 8.39395C0.0292969 6.18223 0.889069 4.24893 1.99233 2.98853L5.93728 6.30823L0.854149 12.3493Z" fill="#EA4335"/>
<path id="Vector_6" d="M85.7366 19.458V6.84598H87.3571L91.7432 14.5259H91.814L96.2002 6.84598H97.8206V19.458H96.2002V11.9716L96.271 9.85754H96.2002L92.2552 16.7801H91.3044L87.3594 9.85754H87.2886L87.3594 11.9716V19.4575L85.7366 19.458ZM102.558 19.7223C101.643 19.7223 100.876 19.458 100.26 18.9295C99.6444 18.401 99.3354 17.7026 99.3354 16.8334C99.3354 15.8896 99.6987 15.1573 100.427 14.6226C101.156 14.088 102.053 13.8214 103.117 13.8214C104.068 13.8214 104.849 13.9974 105.46 14.3499V14.1031C105.46 13.4689 105.243 12.9611 104.809 12.5798C104.375 12.1986 103.84 12.0074 103.205 12.0074C102.736 12.0074 102.311 12.1188 101.929 12.3378C101.547 12.5567 101.286 12.8663 101.146 13.2532L99.6657 12.6195C99.8653 12.1028 100.259 11.6285 100.845 11.184C101.432 10.7395 102.207 10.5234 103.17 10.5234C104.275 10.5234 105.19 10.8466 105.918 11.4921C106.646 12.1377 107.01 13.0484 107.01 14.2229V19.4415H105.46V18.2429H105.39C104.743 19.2339 103.798 19.7223 102.558 19.7223ZM102.823 18.2429C103.492 18.2429 104.099 17.9928 104.645 17.4945C105.192 16.9962 105.465 16.4092 105.465 15.7249C105.007 15.3489 104.32 15.161 103.404 15.161C102.617 15.161 102.024 15.3309 101.625 15.6721C101.226 16.0133 101.026 16.412 101.026 16.8697C101.026 17.2925 101.208 17.6271 101.572 17.8739C101.935 18.1207 102.353 18.2439 102.822 18.2439L102.823 18.2429ZM113.082 19.7223C112.425 19.7223 111.835 19.5807 111.313 19.2995C110.791 19.0182 110.4 18.6653 110.142 18.2424H110.072L110.142 19.4401V23.2449H108.522V10.8098H110.073V12.0074H110.143C110.402 11.5846 110.792 11.2326 111.314 10.9504C111.836 10.6682 112.426 10.5276 113.083 10.5276C114.199 10.5276 115.162 10.9679 115.972 11.8489C116.782 12.7299 117.188 13.8214 117.188 15.1252C117.188 16.429 116.782 17.5209 115.972 18.4015C115.162 19.282 114.199 19.7227 113.083 19.7227L113.082 19.7223ZM112.818 18.2429C113.57 18.2429 114.215 17.9579 114.756 17.3935C115.296 16.8292 115.566 16.0694 115.566 15.1299C115.566 14.1904 115.296 13.4311 114.756 12.8663C114.215 12.3014 113.569 12.0169 112.818 12.0169C112.055 12.0169 111.406 12.2986 110.872 12.8625C110.337 13.4264 110.071 14.1838 110.071 15.1346C110.071 16.0855 110.338 16.8428 110.872 17.4067C111.405 17.9706 112.055 18.2524 112.818 18.2524V18.2429ZM121.494 19.7223C120.531 19.7223 119.735 19.4873 119.107 19.0177C118.478 18.5482 118.021 17.9607 117.724 17.2562L119.168 16.6569C119.626 17.7422 120.407 18.2769 121.512 18.2769C122.016 18.2769 122.431 18.1655 122.754 17.9466C123.076 17.7276 123.238 17.4299 123.238 17.066C123.238 16.5026 122.845 16.1204 122.058 15.9213L120.314 15.4989C119.762 15.3583 119.239 15.0907 118.746 14.6977C118.253 14.3046 118.006 13.7728 118.006 13.1041C118.006 12.3411 118.344 11.7215 119.019 11.2449C119.694 10.7683 120.496 10.5314 121.423 10.5314C122.186 10.5314 122.867 10.7046 123.467 11.0505C124.054 11.3836 124.508 11.9094 124.752 12.5388L123.343 13.1201C123.027 12.3571 122.368 11.9754 121.37 11.9754C120.889 11.9754 120.483 12.0754 120.155 12.2745C119.827 12.4737 119.662 12.7445 119.662 13.0852C119.662 13.5783 120.04 13.9129 120.807 14.0894L122.515 14.4943C123.325 14.6821 123.924 15.0053 124.312 15.4631C124.699 15.9208 124.893 16.438 124.893 17.0137C124.893 17.7885 124.576 18.4293 123.942 18.9512C123.308 19.4731 122.492 19.726 121.488 19.726L121.494 19.7223ZM37.7159 11.9386H31.0689V13.911H35.7877C35.5551 16.6763 33.2537 17.856 31.0816 17.856C30.3934 17.8591 29.7114 17.7251 29.0755 17.4617C28.4396 17.1983 27.8625 16.8109 27.378 16.3221C26.8935 15.8332 26.5112 15.2527 26.2536 14.6145C25.9959 13.9762 25.868 13.2931 25.8772 12.6049C25.8772 9.61924 28.1885 7.31975 31.0868 7.31975C33.3236 7.31975 34.6401 8.74579 34.6401 8.74579L36.0213 7.31598C36.0213 7.31598 34.2485 5.34351 31.0161 5.34351C26.8998 5.34351 23.7146 8.81798 23.7146 12.5709C23.7146 16.2478 26.7111 19.8346 31.1213 19.8346C35.0002 19.8346 37.8409 17.1769 37.8409 13.2471C37.8409 12.4185 37.7206 11.939 37.7206 11.939L37.7159 11.9386Z" fill="#25343F"/>
<path id="Vector_7" d="M43.1728 10.5356C40.4453 10.5356 38.4907 12.6676 38.4907 15.1544C38.4907 17.678 40.3868 19.8496 43.2096 19.8496C45.761 19.8496 47.851 17.8998 47.851 15.2082C47.851 12.1235 45.4194 10.5347 43.1775 10.5347L43.1728 10.5356ZM43.1997 12.3651C44.5412 12.3651 45.812 13.4495 45.812 15.1964C45.812 16.9065 44.5459 18.023 43.193 18.023C41.7066 18.023 40.534 16.8324 40.534 15.1837C40.534 13.5708 41.6925 12.3656 43.1992 12.3656L43.1997 12.3651Z" fill="#25343F"/>
<path id="Vector_8" d="M53.3069 10.5356C50.5794 10.5356 48.6249 12.6676 48.6249 15.1544C48.6249 17.678 50.5209 19.8496 53.3437 19.8496C55.8952 19.8496 57.9852 17.8998 57.9852 15.2082C57.9852 12.1235 55.5535 10.5347 53.3116 10.5347L53.3069 10.5356ZM53.3338 12.3651C54.6754 12.3651 55.9462 13.4495 55.9462 15.1964C55.9462 16.9065 54.6801 18.023 53.3272 18.023C51.8408 18.023 50.6681 16.8324 50.6681 15.1837C50.6681 13.5708 51.8266 12.3656 53.3333 12.3656L53.3338 12.3651Z" fill="#25343F"/>
<path id="Vector_9" d="M63.2853 10.5357C60.7819 10.5357 58.8137 12.7285 58.8137 15.1894C58.8137 17.9924 61.0948 19.8516 63.2414 19.8516C64.5688 19.8516 65.2743 19.3245 65.7962 18.7191V19.6374C65.7962 21.2442 64.8203 22.2068 63.3424 22.2068C61.9197 22.2068 61.2066 21.1488 60.9584 20.5486L59.1686 21.297C59.8037 22.6395 61.0816 24.0401 63.358 24.0401C65.8471 24.0401 67.7446 22.4725 67.7446 19.1797V10.8132H65.7919V11.6022C65.1917 10.9557 64.3706 10.5333 63.2815 10.5333L63.2853 10.5357ZM63.4665 12.3619C64.6943 12.3619 65.9543 13.4095 65.9543 15.1993C65.9543 17.0189 64.6967 18.0212 63.4391 18.0212C62.1046 18.0212 60.8626 16.9378 60.8626 15.2163C60.8626 13.4232 62.1518 12.3614 63.4665 12.3614V12.3619ZM76.4593 10.5357C74.098 10.5357 72.1147 12.4138 72.1147 15.1871C72.1147 18.1203 74.3245 19.8606 76.6858 19.8606C78.6564 19.8606 79.8663 18.7823 80.5874 17.8164L78.983 16.7452C78.5654 17.3936 77.8665 18.0278 76.7014 18.0278C75.3919 18.0278 74.7903 17.3105 74.4175 16.6159L80.6624 14.0206L80.3382 13.2656C79.7342 11.7782 78.327 10.5362 76.4688 10.5362L76.4593 10.5357ZM76.5405 12.327C77.3918 12.327 78.0033 12.78 78.2643 13.3217L74.0938 15.0648C73.9145 13.7153 75.1919 12.327 76.5405 12.327ZM69.1319 19.5831H71.1827V5.85132H69.1319V19.5831Z" fill="#25343F"/>
</g>
</svg>
