<svg width="24" height="24" viewBox="0 0 24 24" fill="none" xmlns="http://www.w3.org/2000/svg">
<g id="@">
<path id="@_2" d="M20.8197 11.6C20.8197 12.836 20.3877 13.898 19.5237 14.786C18.6717 15.662 17.6337 16.1 16.4097 16.1C15.3777 16.1 14.5377 15.74 13.8897 15.02H13.7097C13.1217 15.74 12.2817 16.1 11.1897 16.1C10.7217 16.1 10.2657 15.998 9.82166 15.794C9.37766 15.59 9.00566 15.314 8.70566 14.966C8.02166 14.234 7.67966 13.322 7.67966 12.23C7.67966 11.186 8.00966 10.28 8.66966 9.51199C9.32966 8.74399 10.1697 8.35999 11.1897 8.35999C11.8377 8.35999 12.4377 8.59999 12.9897 9.07999H13.1697L13.2597 8.53998H16.4097C16.1697 9.36798 16.0497 10.208 16.0497 11.06V13.85C16.2657 13.97 16.5057 14.03 16.7697 14.03C17.1417 14.03 17.4597 13.898 17.7237 13.634C17.9997 13.358 18.2037 13.022 18.3357 12.626C18.4317 12.302 18.4797 11.96 18.4797 11.6C18.4797 9.90799 17.8257 8.52799 16.5177 7.45999C15.2217 6.37999 13.7157 5.83999 11.9997 5.83999C10.2357 5.83999 8.71166 6.45799 7.42766 7.69399C6.15566 8.91799 5.51966 10.4 5.51966 12.14C5.51966 13.892 6.16166 15.38 7.44566 16.604C8.72966 17.828 10.2477 18.44 11.9997 18.44C13.5957 18.44 15.2457 18.02 16.9497 17.18L17.8497 18.98C16.0617 19.94 14.1117 20.42 11.9997 20.42C10.4277 20.42 8.96966 20.066 7.62566 19.358C6.28166 18.662 5.20166 17.678 4.38566 16.406C3.58166 15.122 3.17966 13.7 3.17966 12.14C3.17966 10.556 3.59366 9.12799 4.42166 7.85599C5.24966 6.57199 6.32966 5.58799 7.66166 4.90399C9.00566 4.20799 10.4517 3.85999 11.9997 3.85999C13.7757 3.85999 15.4017 4.27399 16.8777 5.10199C18.3657 5.92999 19.4637 7.11199 20.1717 8.64799C20.6037 9.58399 20.8197 10.568 20.8197 11.6ZM11.9997 14.03C12.2037 14.03 12.4377 13.952 12.7017 13.796C12.7977 13.748 12.8937 13.676 12.9897 13.58V10.88C12.8457 10.736 12.6417 10.604 12.3777 10.484C12.2457 10.448 12.1197 10.43 11.9997 10.43C11.5797 10.43 11.2617 10.616 11.0457 10.988C10.8417 11.36 10.7397 11.774 10.7397 12.23C10.7397 12.674 10.8477 13.088 11.0637 13.472C11.2797 13.844 11.5917 14.03 11.9997 14.03Z" fill="#708690"/>
</g>
</svg>
