<svg width="24" height="24" viewBox="0 0 24 24" fill="none" xmlns="http://www.w3.org/2000/svg">
<g id="Clinic/Metro">
<path id="Union" fill-rule="evenodd" clip-rule="evenodd" d="M15.636 7.60251L15 8.00001C15.636 7.60251 15.6361 7.60271 15.6363 7.60294L15.6366 7.60355L15.6377 7.60532L15.6413 7.61104L15.6536 7.63104C15.6641 7.6481 15.679 7.67258 15.6978 7.70398C15.7355 7.76676 15.789 7.85729 15.8543 7.97165C15.9849 8.20014 16.1635 8.52501 16.3583 8.9146C16.7446 9.68716 17.2087 10.7425 17.4776 11.8181C17.7386 12.8622 17.8577 14.0866 17.3583 15.0854C16.8125 16.1771 15.6708 16.75 14 16.75V15.25C15.3292 15.25 15.8125 14.823 16.0167 14.4146C16.2673 13.9134 16.2614 13.1378 16.0224 12.1819C15.7944 11.2698 15.3913 10.338 15.0312 9.61459L12.6708 14.3354H11.3292L8.96876 9.61459C8.60869 10.338 8.20563 11.2698 7.97761 12.1819C7.73864 13.1378 7.73272 13.9134 7.98332 14.4146C8.1875 14.823 8.67082 15.25 9.99999 15.25V16.75C8.32918 16.75 7.1875 16.1771 6.64168 15.0854C6.14228 14.0866 6.26136 12.8622 6.52239 11.8181C6.79129 10.7425 7.25539 9.68717 7.64167 8.9146C7.83646 8.52502 8.01512 8.20014 8.14568 7.97165C8.21103 7.85729 8.26452 7.76676 8.30218 7.70398C8.32102 7.67258 8.33592 7.64811 8.34638 7.63104L8.35869 7.61104L8.36224 7.60532L8.36334 7.60355L8.36373 7.60294C8.36387 7.60271 8.36399 7.60251 8.99999 8.00001L8.36399 7.60251L9.67081 7.6646L12 12.323L14.3292 7.6646L15.636 7.60251Z" fill="#823B8E"/>
</g>
</svg>
