<svg width="17" height="20" viewBox="0 0 17 20" fill="none" xmlns="http://www.w3.org/2000/svg">
<g id="icon">
<path id="path66" d="M0 4.35345L2.42199 8.6826V11.3232L0.00283332 15.6439L0 4.35345Z" fill="#25343F" fill-opacity="0.5"/>
<path id="path68" d="M9.29944 7.10706L11.5689 5.71606L16.2136 5.71173L9.29944 9.94737V7.10706Z" fill="#3B5060"/>
<path id="path70" d="M9.28665 4.32781L9.29948 10.0594L6.87183 8.56779V0L9.28681 4.32781H9.28665Z" fill="#25343F" fill-opacity="0.5"/>
<path id="path72" d="M16.2136 5.7118L11.5688 5.71613L9.28665 4.32781L6.87183 0L16.2134 5.7118H16.2136Z" fill="#25343F" fill-opacity="0.5"/>
<path id="path74" d="M9.29948 15.6678V12.887L6.87183 11.4237L6.87316 20L9.29948 15.6678Z" fill="#25343F" fill-opacity="0.5"/>
<path id="path76" d="M11.5633 14.2896L2.42182 8.6826L0 4.35345L16.2037 14.2839L11.5631 14.2896H11.5633Z" fill="#25343F" fill-opacity="0.5"/>
<path id="path78" d="M6.87323 19.9999L9.29922 15.6677L11.563 14.2894L16.2035 14.2838L6.87323 19.9999Z" fill="#3B5060"/>
<path id="path80" d="M0.00289917 15.6438L6.89169 11.4238L4.57571 10.0028L2.42205 11.3231L0.00289917 15.6438Z" fill="#3B5060"/>
</g>
</svg>
