<svg width="40" height="15" viewBox="0 0 40 15" fill="none" xmlns="http://www.w3.org/2000/svg">
<g id="pay-logo-30px 1" clip-path="url(#clip0_2212_545)">
<path id="Vector" d="M25.2415 1.625V12.3809H23.369V3.07976H20.0263V12.3809H18.1538V1.625H25.2415Z" fill="#25343F" fill-opacity="0.5"/>
<path id="Vector_2" d="M28.377 12.5357C27.5516 12.5357 26.9172 12.3757 26.4735 12.056V10.5547C26.7109 10.7198 26.9687 10.8488 27.2473 10.9416C27.5362 11.0345 27.8766 11.0809 28.2687 11.0809C28.8568 11.0809 29.3003 10.9107 29.5995 10.5702C29.8987 10.2194 30.0844 9.73965 30.1567 9.13093H27.4485V7.67617H30.1412C29.9658 6.48965 29.3571 5.89641 28.3151 5.89641C27.9953 5.89641 27.6754 5.94798 27.3556 6.05117C27.0461 6.15436 26.7985 6.26269 26.6127 6.37617V4.81307C26.8089 4.70991 27.0719 4.6222 27.4021 4.54998C27.7322 4.47776 28.1294 4.44165 28.5937 4.44165C29.1714 4.44165 29.6769 4.54483 30.1102 4.75117C30.5538 4.94722 30.9201 5.22579 31.209 5.58688C31.5082 5.93769 31.7299 6.36584 31.8745 6.87141C32.0291 7.36665 32.1066 7.90831 32.1066 8.49641C32.1066 9.80674 31.797 10.8075 31.178 11.4988C30.5693 12.19 29.6357 12.5357 28.377 12.5357Z" fill="#25343F" fill-opacity="0.5"/>
<path id="Vector_3" d="M36.4834 3.575C35.7406 3.575 35.1783 3.38929 34.7966 3.01786C34.4252 2.64643 34.2394 2.18214 34.2394 1.625H35.787C35.787 1.89325 35.849 2.08929 35.9727 2.2131C36.1068 2.3369 36.2771 2.39881 36.4834 2.39881C36.6794 2.39881 36.8342 2.3369 36.9477 2.2131C37.0611 2.07897 37.1179 1.88294 37.1179 1.625H38.6654C38.6654 1.89325 38.619 2.14603 38.5261 2.38333C38.4333 2.62064 38.294 2.82699 38.1083 3.00239C37.9329 3.17779 37.706 3.31706 37.4274 3.42024C37.1592 3.52342 36.8445 3.575 36.4834 3.575ZM35.1215 4.59643V9.42501L37.9381 4.59643H39.5784V12.3809H37.7988V7.56787L34.9823 12.3809H33.3419V4.59643H35.1215Z" fill="#25343F" fill-opacity="0.5"/>
<path id="Subtract" fill-rule="evenodd" clip-rule="evenodd" d="M7.14286 0H7.16267C11.1075 0 14.3055 3.19797 14.3055 7.14286C14.3055 11.0878 11.1075 14.2857 7.16267 14.2857H7.14286C3.19797 14.2857 0 11.0878 0 7.14286C0 3.19797 3.19797 0 7.14286 0ZM9.6552 11.4357H8.16082V4.02359H7.49391C6.27124 4.02359 5.62905 4.64024 5.62905 5.55286C5.62905 6.58885 6.07367 7.06985 6.98758 7.68647L7.74091 8.19214L5.56734 11.4357H3.94946L5.90077 8.53747C4.77691 7.73581 4.14706 6.95886 4.14706 5.63919C4.14706 3.98658 5.29562 2.86429 7.48158 2.86429H9.6552V11.4357Z" fill="#3B5060"/>
</g>
<defs>
<clipPath id="clip0_2212_545">
<rect width="40" height="14.2857" fill="white"/>
</clipPath>
</defs>
</svg>
