<svg width="24" height="24" viewBox="0 0 24 24" fill="none" xmlns="http://www.w3.org/2000/svg">
<g id="phone">
<path id="Vector" d="M3.96954 17.5586C3.45657 17.2034 3.39047 16.4704 3.83164 16.0293L6.128 13.7329C6.3718 13.4891 6.724 13.3881 7.05996 13.4656L8.95589 13.9031C10.2997 14.2133 11.7085 13.8092 12.6838 12.834L13.084 12.4338C14.0592 11.4586 14.4632 10.0497 14.1531 8.7059L13.7156 6.80998C13.6381 6.47402 13.7391 6.12182 13.9829 5.87801L16.2792 3.58165C16.7204 3.14049 17.4534 3.20658 17.8085 3.71955L17.9332 3.89967C19.3087 5.88644 19.0665 8.57258 17.3578 10.2813L10.5312 17.1078C8.82257 18.8165 6.13643 19.0587 4.14966 17.6833L3.96954 17.5586Z" fill="#708690"/>
</g>
</svg>
