<svg width="25" height="24" viewBox="0 0 25 24" fill="none" xmlns="http://www.w3.org/2000/svg">
<g id="star">
<g id="Star 1">
<path d="M11.5919 3.96866C11.9494 3.19379 13.0506 3.19379 13.4081 3.96866L15.0869 7.60843C15.2326 7.92423 15.5319 8.14168 15.8772 8.18262L19.8576 8.65457C20.705 8.75504 21.0454 9.80243 20.4189 10.3818L17.476 13.1032C17.2207 13.3394 17.1064 13.6912 17.1742 14.0323L17.9553 17.9637C18.1216 18.8007 17.2307 19.448 16.4861 19.0312L12.9884 17.0734C12.685 16.9035 12.315 16.9035 12.0116 17.0734L8.51393 19.0312C7.76932 19.448 6.87836 18.8007 7.04467 17.9637L7.82584 14.0323C7.89362 13.6912 7.7793 13.3394 7.52396 13.1032L4.58114 10.3818C3.95464 9.80242 4.29496 8.75504 5.14235 8.65457L9.12277 8.18262C9.46813 8.14168 9.76742 7.92423 9.91308 7.60843L11.5919 3.96866Z" fill="white"/>
<path d="M11.5919 3.96866C11.9494 3.19379 13.0506 3.19379 13.4081 3.96866L15.0869 7.60843C15.2326 7.92423 15.5319 8.14168 15.8772 8.18262L19.8576 8.65457C20.705 8.75504 21.0454 9.80243 20.4189 10.3818L17.476 13.1032C17.2207 13.3394 17.1064 13.6912 17.1742 14.0323L17.9553 17.9637C18.1216 18.8007 17.2307 19.448 16.4861 19.0312L12.9884 17.0734C12.685 16.9035 12.315 16.9035 12.0116 17.0734L8.51393 19.0312C7.76932 19.448 6.87836 18.8007 7.04467 17.9637L7.82584 14.0323C7.89362 13.6912 7.7793 13.3394 7.52396 13.1032L4.58114 10.3818C3.95464 9.80242 4.29496 8.75504 5.14235 8.65457L9.12277 8.18262C9.46813 8.14168 9.76742 7.92423 9.91308 7.60843L11.5919 3.96866Z" fill="url(#paint0_linear_2203_493)"/>
</g>
</g>
<defs>
<linearGradient id="paint0_linear_2203_493" x1="12.5" y1="2" x2="12.5" y2="22" gradientUnits="userSpaceOnUse">
<stop stop-color="#FFA800"/>
<stop offset="1" stop-color="#FFA800"/>
</linearGradient>
</defs>
</svg>
