<svg width="24" height="24" viewBox="0 0 24 24" fill="none" xmlns="http://www.w3.org/2000/svg">
<g id="25">
<path id="Subtract" fill-rule="evenodd" clip-rule="evenodd" d="M3.25 12C3.25 7.16751 7.16751 3.25 12 3.25C16.8325 3.25 20.75 7.16751 20.75 12C20.75 16.8325 16.8325 20.75 12 20.75C7.16751 20.75 3.25 16.8325 3.25 12ZM11.8702 13.47V12.21L14.8402 8.70001H16.9102V12.3H17.9002L17.7202 13.47H16.9102V15H14.8402V13.47H11.8702ZM14.8402 12.3V10.77H14.7502L13.5352 12.21V12.3H14.8402ZM11.2325 11.58C11.3885 11.256 11.4665 10.926 11.4665 10.59C11.4665 10.152 11.3285 9.771 11.0525 9.447C10.7765 9.117 10.4405 8.88 10.0445 8.736C9.65451 8.592 9.24351 8.52 8.81151 8.52C8.2835 8.52 7.79151 8.628 7.33551 8.844C6.87951 9.054 6.4985 9.366 6.1925 9.78L6.8225 10.41C7.3385 9.93 7.85151 9.69 8.36151 9.69C8.62551 9.69 8.84751 9.777 9.0275 9.951C9.21351 10.119 9.30651 10.332 9.30651 10.59C9.30651 10.986 9.16251 11.376 8.87451 11.76C8.58651 12.144 8.24451 12.48 7.84851 12.768C7.41051 13.122 6.9215 13.446 6.38151 13.74V15H11.4215L11.6015 13.74H8.90151V13.65C9.21951 13.488 9.51651 13.311 9.79251 13.119C10.0745 12.921 10.3475 12.696 10.6115 12.444C10.8755 12.186 11.0825 11.898 11.2325 11.58Z" fill="#708690"/>
</g>
</svg>
