<svg width="128" height="24" viewBox="0 0 128 24" fill="none" xmlns="http://www.w3.org/2000/svg">
<path d="M26.4974 18.7412H28.7994V5.5H25.4455C22.0736 5.5 20.3065 7.23103 20.3065 9.7855C20.3065 11.8231 21.2742 13.0252 23.0113 14.2633L20 18.7412H22.4944L25.8482 13.7284L24.6882 12.947C23.2757 11.9974 22.5905 11.2521 22.5905 9.65327C22.5905 8.2408 23.5823 7.29113 25.4696 7.29113H26.4974V18.7412ZM70.9452 18.9275C71.997 18.9275 72.7363 18.7412 73.2893 18.3385V16.4932C72.7183 16.8899 72.0331 17.1364 71.0834 17.1364C69.4606 17.1364 68.7934 15.8802 68.7934 13.9027C68.7934 11.8231 69.6168 10.7592 71.1014 10.7592C71.979 10.7592 72.8325 11.0597 73.2893 11.3482V9.42487C72.8144 9.1544 71.979 8.96807 70.855 8.96807C67.9579 8.96807 66.4493 11.0417 66.4493 13.9568C66.4493 17.1604 67.9159 18.9275 70.9452 18.9275ZM56.7724 18.092V16.2408C56.0691 16.7216 54.885 17.1364 53.7791 17.1364C52.1202 17.1364 51.4951 16.361 51.3989 14.7562H56.8685V13.5601C56.8685 10.2243 55.402 8.96807 53.13 8.96807C50.3712 8.96807 49.0548 11.0778 49.0548 13.9748C49.0548 17.3107 50.6957 18.9275 53.5928 18.9275C55.0353 18.9275 56.1052 18.5488 56.7724 18.092ZM64.015 18.7412H66.5815L62.9452 13.6503L66.1488 9.1544H63.8588L60.6612 13.6503V9.1544H58.3892V18.7412H60.6612V14.1071L64.015 18.7412ZM48.5019 16.95H47.4921V9.1544H40.8805V9.97784C40.8805 12.3159 40.7303 15.3452 39.9309 16.95H39.2216V20.929H41.3193V18.7412H46.4042V20.929H48.5019V16.95ZM36.006 9.1544V12.947H32.9767V9.1544H30.7047V18.7412H32.9767V14.7382H36.006V18.7412H38.272V9.1544H36.006ZM53.0939 10.7592C54.2179 10.7592 54.5605 11.6908 54.5605 12.8929V13.0793H51.3989C51.4591 11.5586 52.006 10.7592 53.0939 10.7592ZM45.2261 16.95H42.0225C42.6536 15.5015 42.8279 12.8929 42.8279 11.234V10.9455H45.2261V16.95ZM85.124 18.7412H87.8107L83.1044 11.787L87.3719 5.5H85.0278L80.9286 11.5947V5.5H78.6266V18.7412H80.9286V12.5263L85.124 18.7412ZM95.5462 12.2017C95.5462 9.88167 94.3621 9.00413 91.9639 9.00413C90.4613 9.00413 89.2772 9.47896 88.592 9.88167V11.769C89.1991 11.3062 90.5334 10.8133 91.6995 10.8133C92.7814 10.8133 93.2802 11.192 93.2802 12.2258V12.7547H92.9136C89.4455 12.7547 87.9068 13.9027 87.9068 15.8441C87.9068 17.7855 89.0849 18.8734 90.84 18.8734C92.1743 18.8734 92.7453 18.4346 93.1841 17.9778H93.2802C93.2983 18.2243 93.3764 18.5488 93.4485 18.7412H95.6604C95.5823 17.9598 95.5462 17.1784 95.5462 16.3971V12.2017ZM93.2802 16.4512C92.9917 16.8719 92.4568 17.2145 91.6574 17.2145C90.7077 17.2145 90.2269 16.6796 90.2269 15.8621C90.2269 14.7742 91.0083 14.3775 92.9557 14.3775H93.2802V16.4512ZM99.4711 9.1544H97.3734V21.5H99.6394V17.6172C100.216 18.4707 101.052 18.9275 102.026 18.9275C104.231 18.9275 105.758 17.1604 105.758 13.9388C105.758 10.7352 104.273 8.96807 102.14 8.96807C101.07 8.96807 100.192 9.46093 99.5853 10.3926L99.4711 9.1544ZM101.455 17.1364C100.252 17.1364 99.6394 16.1687 99.6394 13.9568C99.6394 11.7269 100.289 10.7592 101.569 10.7592C102.807 10.7592 103.414 11.7269 103.414 13.9388C103.414 16.1687 102.765 17.1364 101.455 17.1364ZM113.74 10.9455V9.1544H106.137V10.9455H108.805V18.7412H111.071V10.9455H113.74ZM115.074 9.1544V18.7412H118.524C120.754 18.7412 122.335 17.5992 122.335 15.3452C122.335 13.2115 120.923 12.0875 118.56 12.0875H117.34V9.1544H115.074ZM123.171 9.1544V18.7412H125.443V9.1544H123.171ZM118.392 16.95H117.34V13.8787H118.446C119.42 13.8787 119.991 14.3174 119.991 15.4234C119.991 16.5293 119.36 16.95 118.392 16.95Z" fill="#25343F"/>
<path d="M8 5C4.6862 5 2 7.6862 2 11C2 12.6563 2.6711 14.156 3.7565 15.2417C4.8422 16.328 7.4 17.9 7.55 19.55C7.57249 19.7974 7.7516 20 8 20C8.2484 20 8.42751 19.7974 8.45 19.55C8.6 17.9 11.1578 16.328 12.2435 15.2417C13.3289 14.156 14 12.6563 14 11C14 7.6862 11.3138 5 8 5Z" fill="#FF4433"/>
<path d="M8.00002 13.1001C9.15982 13.1001 10.1 12.1599 10.1 11.0001C10.1 9.84035 9.15982 8.90015 8.00002 8.90015C6.84023 8.90015 5.90002 9.84035 5.90002 11.0001C5.90002 12.1599 6.84023 13.1001 8.00002 13.1001Z" fill="white"/>
</svg>
