<svg width="63" height="16" viewBox="0 0 63 16" fill="none" xmlns="http://www.w3.org/2000/svg">
<g id="logo 1" clip-path="url(#clip0_2203_736)">
<path id="Vector" d="M1.04444 0.996594H13.9556C14.2562 0.996594 14.5 1.24035 14.5 1.54104V4.08C14.5 4.41819 14.3532 4.73841 14.0978 4.96L6.87778 11H13.9556C14.2562 11 14.5 11.2393 14.5 11.54V14.4548C14.5 14.7555 14.2562 14.9992 13.9556 14.9992H1.04444C0.743756 14.9992 0.5 14.7555 0.5 14.4548V11.92C0.5 11.5818 0.646755 11.2616 0.902239 11.04L8.12222 5H1.04444C0.743756 5 0.5 4.75069 0.5 4.45V1.54104C0.5 1.24035 0.743756 0.996594 1.04444 0.996594ZM23.5 0.5C24.9929 0.5 26.3238 0.83571 27.4349 1.4492C28.546 2.06269 29.4373 2.95395 30.0508 4.06506C30.6643 5.17617 31 6.50713 31 8C31 9.49287 30.6643 10.8238 30.0508 11.9349C29.4373 13.046 28.546 13.9373 27.4349 14.5508C26.3238 15.1643 24.9929 15.5 23.5 15.5C22.0071 15.5 20.6762 15.1643 19.5651 14.5508C18.454 13.9373 17.5627 13.046 16.9492 11.9349C16.3357 10.8238 16 9.49287 16 8C16 6.50713 16.3357 5.17617 16.9492 4.06506C17.5627 2.95395 18.454 2.06269 19.5651 1.4492C20.6762 0.83571 22.0071 0.5 23.5 0.5ZM23.5 4.5C22.7859 4.5 22.159 4.65085 21.6404 4.93133C21.1219 5.21181 20.7118 5.62192 20.4313 6.14043C20.1508 6.65895 20 7.28588 20 8C20 8.71412 20.1508 9.34105 20.4313 9.85957C20.7118 10.3781 21.1219 10.7882 21.6404 11.0687C22.159 11.3492 22.7859 11.5 23.5 11.5C24.2141 11.5 24.841 11.3492 25.3596 11.0687C25.8781 10.7882 26.2882 10.3781 26.5687 9.85957C26.8492 9.34105 27 8.71412 27 8C27 7.28588 26.8492 6.65895 26.5687 6.14043C26.2882 5.62192 25.8781 5.21181 25.3596 4.93133C24.841 4.65085 24.2141 4.5 23.5 4.5ZM39.5 0.5C40.9929 0.5 42.3238 0.83571 43.4349 1.4492C44.546 2.06269 45.4373 2.95395 46.0508 4.06506C46.6643 5.17617 47 6.50713 47 8C47 9.49287 46.6643 10.8238 46.0508 11.9349C45.4373 13.046 44.546 13.9373 43.4349 14.5508C42.3238 15.1643 40.9929 15.5 39.5 15.5C38.0071 15.5 36.6762 15.1643 35.5651 14.5508C34.454 13.9373 33.5627 13.046 32.9492 11.9349C32.3357 10.8238 32 9.49287 32 8C32 6.50713 32.3357 5.17617 32.9492 4.06506C33.5627 2.95395 34.454 2.06269 35.5651 1.4492C36.6762 0.83571 38.0071 0.5 39.5 0.5ZM39.5 4.5C38.7859 4.5 38.159 4.65085 37.6404 4.93133C37.1219 5.21181 36.7118 5.62192 36.4313 6.14043C36.1508 6.65895 36 7.28588 36 8C36 8.71412 36.1508 9.34105 36.4313 9.85957C36.7118 10.3781 37.1219 10.7882 37.6404 11.0687C38.159 11.3492 38.7859 11.5 39.5 11.5C40.2141 11.5 40.841 11.3492 41.3596 11.0687C41.8781 10.7882 42.2882 10.3781 42.5687 9.85957C42.8492 9.34105 43 8.71412 43 8C43 7.28588 42.8492 6.65895 42.5687 6.14043C42.2882 5.62192 41.8781 5.21181 41.3596 4.93133C40.841 4.65085 40.2141 4.5 39.5 4.5ZM62.5017 1.54277V14.4546C62.5017 14.7553 62.2579 14.9991 61.9572 14.9991H59.42C59.0818 14.9991 58.7616 14.8523 58.54 14.5969L52.5 7.37774V14.4546C52.5 14.7553 52.2507 14.9991 51.95 14.9991H49.0428C48.7421 14.9991 48.4983 14.7553 48.4983 14.4546V1.54277C48.4983 1.24207 48.7421 0.998297 49.0428 0.998297H51.58C51.9183 0.998297 52.2384 1.14509 52.46 1.40063L58.5 8.62226V1.54277C58.5 1.24207 58.7393 0.998297 59.04 0.998297H61.9572C62.2579 0.998297 62.5017 1.24207 62.5017 1.54277Z" fill="url(#paint0_linear_2203_736)"/>
</g>
<defs>
<linearGradient id="paint0_linear_2203_736" x1="4795.91" y1="750.5" x2="1352.84" y2="750.5" gradientUnits="userSpaceOnUse">
<stop stop-color="#6339F5"/>
<stop offset="1" stop-color="#3D3F55"/>
</linearGradient>
<clipPath id="clip0_2203_736">
<rect width="62" height="16" fill="white" transform="translate(0.5)"/>
</clipPath>
</defs>
</svg>
